# xmcd
#
# Track frame offsets: 
#        150
#        18550
#        47359
#        66704
#        80140
#        103142
#        116444
#        141039
#        159853
#        177805
#        187724
#        201458
#        217660
#        239975
#        260556
#        276339
#        296628
#
# Disc length: 4201 seconds
#
# Revision: 0
# Processed by: cddbd v1.5.2PL0 Copyright (c) Steve Scherf et al.
# Submitted via: ExactAudioCopy v1.0b4
#
DISCID=02106711
DTITLE=Ron Sayer Jr - Guitar Legends
DYEAR=2015
DGENRE=Blues Rock
TTITLE0=Crossroads
TTITLE1=Redhouse
TTITLE2=Sunshine of Your Love
TTITLE3=Born Under a Bad Sign
TTITLE4=Chevrolet
TTITLE5=Mary Had a Little Lamb
TTITLE6=Voodoo Chile Slight Return
TTITLE7=Hoochie Coochie Man
TTITLE8=Black Magic Woman
TTITLE9=Scuttle Buttin'
TTITLE10=Phone Booth
TTITLE11=Walking By Myself
TTITLE12=The Thrill Is Gone
TTITLE13=Lovin' Cup
TTITLE14=I'm Tore Down
TTITLE15=Little Wing
TTITLE16=Ain't No Fun for Me
EXTD=
EXTT0=
EXTT1=
EXTT2=
EXTT3=
EXTT4=
EXTT5=
EXTT6=
EXTT7=
EXTT8=
EXTT9=
EXTT10=
EXTT11=
EXTT12=
EXTT13=
EXTT14=
EXTT15=
EXTT16=
PLAYORDER=
